<svg width="17" height="22" viewBox="0 0 17 22" fill="none" xmlns="http://www.w3.org/2000/svg">
<path d="M8.14286 16.2857C7.60295 16.2857 7.08516 16.0712 6.70339 15.6895C6.32162 15.3077 6.10714 14.7899 6.10714 14.25C6.10714 13.1202 7.01304 12.2143 8.14286 12.2143C8.68276 12.2143 9.20055 12.4288 9.58232 12.8105C9.96409 13.1923 10.1786 13.7101 10.1786 14.25C10.1786 14.7899 9.96409 15.3077 9.58232 15.6895C9.20055 16.0712 8.68276 16.2857 8.14286 16.2857ZM14.25 19.3393V9.16071H2.03571V19.3393H14.25ZM14.25 7.125C14.7899 7.125 15.3077 7.33948 15.6895 7.72125C16.0712 8.10302 16.2857 8.62081 16.2857 9.16071V19.3393C16.2857 19.8792 16.0712 20.397 15.6895 20.7788C15.3077 21.1605 14.7899 21.375 14.25 21.375H2.03571C1.49581 21.375 0.978017 21.1605 0.596247 20.7788C0.214476 20.397 0 19.8792 0 19.3393V9.16071C0 8.03089 0.905893 7.125 2.03571 7.125H3.05357V5.08929C3.05357 3.73952 3.58976 2.44504 4.54419 1.49062C5.49861 0.536191 6.79309 0 8.14286 0C8.81119 0 9.47298 0.131638 10.0904 0.387399C10.7079 0.643159 11.2689 1.01803 11.7415 1.49062C12.2141 1.9632 12.589 2.52424 12.8447 3.1417C13.1005 3.75916 13.2321 4.42095 13.2321 5.08929V7.125H14.25ZM8.14286 2.03571C7.333 2.03571 6.55631 2.35743 5.98366 2.93008C5.411 3.50274 5.08929 4.27943 5.08929 5.08929V7.125H11.1964V5.08929C11.1964 4.27943 10.8747 3.50274 10.3021 2.93008C9.7294 2.35743 8.95271 2.03571 8.14286 2.03571Z" fill="#6750A4"/>
</svg>
