<svg width="23" height="23" viewBox="0 0 23 23" fill="none" xmlns="http://www.w3.org/2000/svg">
<path d="M11.0833 21.375C12.4348 21.375 13.7731 21.1088 15.0218 20.5916C16.2704 20.0744 17.405 19.3163 18.3606 18.3607C19.3163 17.405 20.0744 16.2704 20.5916 15.0218C21.1088 13.7732 21.375 12.4349 21.375 11.0834C21.375 9.73183 21.1088 8.39355 20.5916 7.1449C20.0744 5.89626 19.3163 4.76172 18.3606 3.80605C17.405 2.85038 16.2704 2.0923 15.0218 1.57509C13.7731 1.05789 12.4348 0.791687 11.0833 0.791687M11.0833 21.375C9.7318 21.375 8.39352 21.1088 7.14487 20.5916C5.89623 20.0744 4.76169 19.3163 3.80602 18.3607C2.85035 17.405 2.09227 16.2704 1.57506 15.0218C1.05786 13.7732 0.791656 12.4349 0.791656 11.0834C0.791656 9.73183 1.05786 8.39355 1.57506 7.1449C2.09227 5.89626 2.85035 4.76172 3.80602 3.80605C4.76169 2.85038 5.89623 2.0923 7.14487 1.57509C8.39352 1.05789 9.7318 0.791687 11.0833 0.791687M11.0833 21.375C14.2406 21.375 15.5899 15.471 15.5899 11.0834C15.5899 6.69567 14.2406 0.791687 11.0833 0.791687M11.0833 21.375C7.92607 21.375 6.57672 15.471 6.57672 11.0834C6.57672 6.69567 7.92607 0.791687 11.0833 0.791687M1.36342 7.6528H20.8032M1.36342 14.5139H20.8032" stroke="#6750A4" stroke-width="1.58333" stroke-linecap="round" stroke-linejoin="round"/>
</svg>
